<?xml version="1.0" encoding="UTF-8"?>
<svg id="Camada_1" data-name="Camada 1" xmlns="http://www.w3.org/2000/svg" viewBox="0 0 1325 204.55">
  <defs>
    <style>
      .cls-1 {
        fill: #fff;
      }
    </style>
  </defs>
  <rect class="cls-1" x="259.28" y=".97" width="3.3" height="203.58"/>
  <g>
    <path class="cls-1" d="M222.41,182.55c-41.5-9.2-74.75-9.32-107.86,19.82,15.45-26.69,49.54-37.45,78.34-34.48l12.1,1.25-9.52-25.25c2.3-.33,4.73-.31,6.92.11l13.23,25.6,6.78,12.95Z"/>
    <path class="cls-1" d="M29.94,167.9c27.7-2.54,59.47,6.62,75.39,31.72-26.5-20.33-55.04-26.54-86.97-20.58L0,182.48l19.24-37.76c.84-1.64,5.86-1.68,7.09-.56l-9.09,24.91,12.71-1.16Z"/>
    <path class="cls-1" d="M216.11,195.88l-21.75-1.98c-26.06-2.37-50.94,3.02-77.3,10.27,25.79-15.76,69.61-19.97,99.05-8.29Z"/>
    <path class="cls-1" d="M103.17,203.24c-38.21-9.35-57.75-12.46-97.39-7.14,27.19-11.55,71.76-8.2,97.39,7.14Z"/>
    <path class="cls-1" d="M101.2,179.54c-18.54-9.43-35.83-18.48-56.17-21.2l-12.14-1.62c24.3-2.07,49.85,5.47,68.31,22.82Z"/>
    <path class="cls-1" d="M187.65,156.82c-23.53,1.9-43.71,10.61-65.33,21.75,17.46-16.37,42.25-23.63,65.33-21.75Z"/>
    <path class="cls-1" d="M97.94,166.28l-11.05-5.69c-8.22-4.23-16.42-7.17-25.06-10.06,13.39,1.01,26.41,5.59,36.12,15.74Z"/>
    <path class="cls-1" d="M142.54,156.48c-6.47,3.66-12.15,7.39-19.05,9.96,10.03-9.83,23.75-14.9,37.51-16.02l-18.45,6.06Z"/>
  </g>
  <g>
    <path class="cls-1" d="M534.56,112.11c-.42.6-2.59,1.12-3.26.94-.84-.22-.27-2.67.23-3.48l2.91-4.76c.66-1.09,3.75-.61,5.41-.26l-5.29,7.56Z"/>
    <path class="cls-1" d="M458.58,53.62c5.75,3.62,7.71,8.72,7.66,15.36-.05,7.33-4.49,16.59-12.97,17.13-11.27.72-22.43.39-33.58.25V20.82s32,.18,32,.18c9.25.05,14.53,9.11,14.53,17.37,0,6.19-1.54,11.63-7.65,15.24ZM449.18,46.22c1.82-.03,3.71-4.06,3.58-5.75s-2.18-5.12-3.91-5.14l-15.3-.12-.04,11.22,15.68-.22ZM448.65,72.4c1.96-.03,4.2-4.15,4.1-6.04-.1-1.7-2.09-5.32-3.83-5.35l-15.44-.23.05,11.81,15.12-.2Z"/>
    <path class="cls-1" d="M906.22,77.13c-12.59,14.36-33.85,13.76-45.89-.32-10.92-12.77-11.33-31.42-1.08-44.72,11.43-14.81,32.76-16.28,45.87-2.78,12.65,13.02,13.38,33.8,1.09,47.82ZM902.18,53.82c0-10.31-8.39-18.66-18.73-18.66s-18.73,8.35-18.73,18.66,8.39,18.66,18.73,18.66,18.73-8.35,18.73-18.66Z"/>
    <path class="cls-1" d="M830.37,86.64l-12.38-25.36-5.57-.45-.08,25.69-13.46-.21V20.99c9.91.09,20.2-1.14,30.08.65,8.13,1.47,12.21,10.53,12.81,17.24.75,8.4-2.78,15.84-10.6,20.49l12.81,26.84-13.61.42ZM825.26,46.22c1.82-.18,3.47-4.15,3.34-5.69s-1.79-4.96-3.33-5.01l-12.77-.36-.04,11.59c4.58-.07,8.25-.09,12.8-.53Z"/>
    <path class="cls-1" d="M692.69,86.46l-12.01-24.54c-.62-1.27-4.65-1.23-5.86-.67l-.17,25.2-13.38-.07V20.85s27.26-.05,27.26-.05c6.86.88,11.87,5.54,14.28,11.84,3.68,10.2.44,21.31-9.25,26.82l12.96,26.83-13.83.17ZM686.2,46.66c2.08,0,4.61-3.39,4.78-5.19s-1.64-6.03-3.57-6.06l-12.58-.17-.03,11.39,11.4.03Z"/>
    <polygon class="cls-1" points="753.7 60.85 730.41 60.86 730.59 72.52 760 72.65 759.74 86.52 716.95 86.45 716.93 20.87 759.84 20.81 759.98 35.16 730.57 35.28 730.54 46.65 753.59 46.74 753.7 60.85"/>
    <polygon class="cls-1" points="616.34 60.81 593.16 60.88 593.27 72.55 622.57 72.59 622.4 86.5 579.58 86.49 579.55 20.82 622.48 20.81 622.54 35.21 593.27 35.25 593.24 46.65 616.23 46.75 616.34 60.81"/>
    <polygon class="cls-1" points="515.11 60.81 491.9 60.95 491.98 72.55 521.31 72.63 521.26 86.49 478.42 86.49 478.4 20.82 521.28 20.82 521.33 35.16 491.97 35.29 491.96 46.6 515.14 46.8 515.11 60.81"/>
    <path class="cls-1" d="M393.44,73.9l-19-.16-3.49,12.7-13.55-.15,16.08-65.38,20.63-.1,16.1,65.38-13.52.36-3.24-12.65ZM390.2,59.26l-6.31-22.32-6.22,22.61,12.53-.29Z"/>
    <path class="cls-1" d="M313.72,69.27c8.75,7.46,20.54,4.18,26.2-5.15l11.11,7.56c-4.5,9.27-14.41,14.99-23.97,15.77-11.2.91-21.24-4.07-27.65-13.25-9.12-13.07-8.53-30.57,1.62-42.89,6.47-7.86,15.93-11.99,26-11.13,9.49.81,18.37,5.81,24.19,15.45l-11.3,7.91c-6.11-9.93-18-12.25-26.54-4.82-9.04,7.87-9.17,22.45.33,30.55Z"/>
    <polygon class="cls-1" points="569.69 72.62 569.81 86.45 533.09 86.47 533.07 21.02 546.59 20.91 546.58 72.43 569.69 72.62"/>
    <rect class="cls-1" x="771.65" y="20.81" width="13.53" height="65.7"/>
    <rect class="cls-1" x="633.99" y="20.81" width="13.78" height="65.69"/>
    <path class="cls-1" d="M1325,183.46v1.23l-5.82-.27-13.43-27.79-12.45-.15-.08,28.13-5.42-.17v-61.99c8.4-.02,16.25-.67,24.1.45s11.55,10.36,11.44,16.94c-.13,7.57-4.19,13.67-11.86,16.51l13.53,27.1ZM1310.24,150.05c5.47-.68,7.59-7.03,7.48-10.96s-2.38-9.37-7.04-10.16c-5.66-.96-11.37-.65-17.38-.52l-.03,21.91c5.65.1,11.19.44,16.96-.28Z"/>
    <path class="cls-1" d="M994.1,184.77l-.34-50.39-17.65,49.68c-1.71.97-4.83,1.02-6.33-.02l-17.37-48.92-.41,49.2-5.68.39-.04-62.11c2.78-.12,5.27-.09,7.98.14l18.67,55.09,18.78-55.12,8.06-.22.02,61.76-5.68.52Z"/>
    <path class="cls-1" d="M468.66,184.21c-2.39.73-5.31.7-8.55.39l-26.49-52.87-.46,52.53c-1.41.27-3.25.41-5.68.53l-.04-62.18c3.31-.23,6.09-.21,8.93.13l26.03,52.12.55-52.21,5.7-.05.02,61.61Z"/>
    <path class="cls-1" d="M1267.7,175.4c-12.14,14.14-32.78,13.47-44.25-.52-10.38-12.66-10.18-31,.6-43.37,11.4-13.07,30.97-13.44,42.84-.72s12.11,31.44.81,44.6ZM1270.95,153.58c0-13.85-11.27-25.08-25.18-25.08s-25.18,11.23-25.18,25.08,11.27,25.08,25.18,25.08,25.18-11.23,25.18-25.08Z"/>
    <path class="cls-1" d="M737.56,153.55c0,17.11-13.93,30.98-31.11,30.98s-31.11-13.87-31.11-30.98,13.93-30.98,31.11-30.98,31.11,13.87,31.11,30.98ZM731.58,153.58c0-13.85-11.28-25.08-25.19-25.08s-25.19,11.23-25.19,25.08,11.28,25.08,25.19,25.08,25.19-11.23,25.19-25.08Z"/>
    <path class="cls-1" d="M869.63,177.06c-11.68,11.8-29.73,11.27-40.89-.15-12.13-12.42-12.63-32.15-1.32-45.24,10.97-12.7,29.79-13.75,41.88-1.96,13.04,12.72,13.57,33.99.33,47.35ZM874.43,153.6c0-13.86-11.28-25.09-25.19-25.09s-25.19,11.23-25.19,25.09,11.28,25.09,25.19,25.09,25.19-11.23,25.19-25.09Z"/>
    <path class="cls-1" d="M929.44,184.76l-13.7-28.14-12.42-.29v28.09s-5.48.07-5.48.07l-.04-62.01c7.75-.16,15.55-.45,23.54.23,7.37.63,11.58,9.04,11.92,15.6.43,8.35-3.55,15.12-11.76,17.9l13.44,28.06-5.5.49ZM920.45,150c5.49-.78,7.38-7.15,7.28-10.99-.11-3.91-2.53-9.67-7.57-10.24-5.48-.63-10.95-.48-16.82-.45v22.13c5.65-.05,11.47.36,17.12-.45Z"/>
    <path class="cls-1" d="M1199.69,174.24c-5.23,7-12.66,10.62-20.79,10.6l-16.98-.05-.04-62.38,20.36.08c6.19.02,12.25,4.05,16.22,8.73,10.31,12.15,10.96,30.01,1.23,43.03ZM1201.18,150.9c-.95-10.49-7.37-19.66-17.21-21.9-5.12-1.16-10.28-.65-16.55-.62l-.03,50.35c6.37-.01,12.7.86,18.38-1.1,10.72-3.71,16.47-15.07,15.42-26.73Z"/>
    <polygon class="cls-1" points="410.04 156.38 386.21 156.42 386.43 178.8 415.96 178.88 415.96 184.8 380.71 184.76 380.71 122.34 415.99 122.36 415.84 128.3 386.29 128.33 386.27 150.4 410.17 150.5 410.04 156.38"/>
    <path class="cls-1" d="M1140.47,167.92l-24.13.03-5.2,16.18c-1.23.71-3.7.69-5.73.18l18.59-60.93c2.22-1.31,5.95-1.35,8.69-.55l18.83,61.53-5.65.24-5.4-16.68ZM1139.04,161.82l-10.53-32.72-10.46,32.66,20.99.06Z"/>
    <path class="cls-1" d="M624.71,170.55c5.08,6.49,12.45,9.65,20.17,9.04,7.26-.58,13.82-4.7,18.56-11.8l4.73,2.9c-4.72,8.72-13.49,13.95-22.36,14.8-10.42.99-19.69-3.3-25.93-11.48-9.71-12.73-9.2-30.68,1.48-42.63,6.49-7.26,15.34-10.85,25.26-9.64,8.4,1.02,16.88,6.15,21.61,14.56l-4.58,3.35c-4.62-6.97-10.8-11.11-17.95-11.94-7.95-.92-15.42,2.27-20.57,8.41-8.23,9.81-8.58,24.01-.41,34.45Z"/>
    <path class="cls-1" d="M305.67,170.87c5.25,6.46,12.51,9.43,20.41,8.69,6.73-.63,13.3-4.77,17.73-11.41,1.11-.14,3.5,1.22,4.99,2.56-3.99,7.74-11.95,12.82-19.16,14.27-10.01,2.01-19.11-.85-26.02-7.57-11.73-11.4-13.2-29.69-3.97-43.04,5.95-8.6,15.32-13.34,25.53-12.8,9.55.5,18.62,5.75,23.78,14.79-1.46,1.15-3.47,2.42-4.82,3.04-4.57-6.86-11.02-11.04-18.17-11.73-7.9-.76-15.36,2.45-20.41,8.68-8.08,9.97-8.23,24.28.11,34.53Z"/>
    <path class="cls-1" d="M1050.2,122.73l5.76-.11-.27,43.45c-.07,11.7-10.38,19.7-20.99,19.59-10.85-.12-20.69-8.44-20.76-20.11l-.25-42.84,5.72-.06.44,43c.08,8.11,7.89,13.92,14.86,14.04,7.11.12,15.01-5.72,15.08-13.82l.4-43.14Z"/>
    <path class="cls-1" d="M806.2,150.46c1.15.91,1.16,4.7.34,5.9l-23.3.07-.15,28.18h-5.44s.03-62.29.03-62.29l35.26.04v5.89s-29.77.11-29.77.11l.05,22.06,22.97.04Z"/>
    <path class="cls-1" d="M579.03,150.56l-.24,5.83-23.6.04-.14,27.75c-1.25.58-4.03.68-5.44.1l-.03-61.92,35.29-.03.06,5.89-29.76.13-.03,22.02,23.89.17Z"/>
    <path class="cls-1" d="M501.85,184.06c-1.25.96-4.68,1.09-5.7-.19l-.11-55.37-16.74-.33c-.93-.6-.98-3.87-.45-5.81l39.97-.05.48,5.92-17.43.19-.02,55.64Z"/>
    <path class="cls-1" d="M1099.14,178.84c.68,1.27.73,4.06.44,6l-29.34-.07-.07-61.41c1.03-1.01,3.88-1.11,5.73-.57l.11,55.99,23.12.06Z"/>
    <rect class="cls-1" x="360.2" y="122.35" width="5.78" height="62.61"/>
    <rect class="cls-1" x="500.72" y="150.68" width="62.47" height="5.77" transform="translate(378.32 685.49) rotate(-89.99)"/>
    <polygon class="cls-1" points="601.07 184.4 595.35 184.81 595.31 122.67 601.07 122.75 601.07 184.4"/>
  </g>
  <g>
    <circle class="cls-1" cx="101.65" cy="116.56" r="8.8"/>
    <circle class="cls-1" cx="142.7" cy="21.27" r="8.8"/>
    <g>
      <path class="cls-1" d="M141.8,50.76c2.96-6.98,5.21-13.25,6.67-20.7l.56-2.68-3.1.66-2.26,1.02c.21-.08.88-.15.11,2.65-1.41,5.9-2.94,10.81-5.31,16.15-2.76-1.68-6.78-3.63-7.63-5.57l-8.8-19.92c4.43-2.34,9.05-4.04,13.77-5.35.76-1.21,1.79-2.22,3.01-2.96-.37-.03-.72-.05-.97-.01-5.88.85-11.97,3.42-17.36,5.68-4.19-6.99-8.86-13.43-15.51-17.64-6.02-3.81-13.68-2.42-16.99,4.05-1.81,3.55-2.96,7.72-4.24,12.19-10.93-3.5-39.82-10.1-46.83.31-9.52,14.13,17.99,37.33,29.55,45.35-6.35,8.08-12.27,15.81-16.75,24.71-4.03,8.03-7.35,21.29.55,27.25,10.52,7.92,31.86-4.16,42.83-10.79l2.47,5.03c.93-.8,2.04-1.4,3.26-1.75l-2.52-5.42c6.86-5.38,12.64-10.19,18.89-15.89,7.72,1.91,15.22,3.48,24.09,4.66,1.03,11.01,2.49,26.35-3.57,36.46-2.8,4.67-8.49,6.26-13.7,3.37-5.09-2.82-9.88-6.82-13.43-10.42,0,0,0,0,0-.01-.86,1.42-2.11,2.58-3.61,3.31.25-.02.51-.04.75-.06,5.11,4.71,10.41,10.28,17.01,13.06,6.79,2.86,14.02.6,17.37-6.06,6.13-12.18,4.08-26.61,3.52-39.56,8.27.07,18.43-1,20.83-7.5,4.34-11.76-13.38-26.33-22.66-33.62ZM126.09,39.27l-15.94-9.37,9.51-6.35c2.92,5.84,4.41,8.63,6.43,15.72ZM91.79,6.09c3.14-4.18,8.51-4.57,12.57-1.31,5.53,4.46,9.58,10.02,13.64,16.47l-11.12,6.8-20.62-9.05c.99-4.51,2.82-9.29,5.54-12.91ZM85.59,23.88c6.45,2.39,11.3,4.41,17.28,7.13l-18.45,14.69c-.69-7.68-.1-14.05,1.17-21.82ZM83.88,68.94l-10.68-5.9,9.12-9.59c.87,5.64,1.17,8.73,1.56,15.49ZM42.61,21.28c6.35-7.95,32.15-.84,40.68,1.98l-.93,24.76-12.57,12.43c-9.24-6.05-36.06-28.06-27.18-39.18ZM53.4,111.91c-11.3-8.11,9.71-38.43,16.88-45.44l13.93,8.17c2.21,8.63,4.56,17,7.56,25.98-8.03,5.88-29.96,17.31-38.37,11.29ZM94.09,99.15c-3.05-8.02-4.97-14.3-6.6-22.81l22.97,9.53c-5.38,5.07-10.32,9.04-16.37,13.28ZM114.72,82.05c-10.28-3.02-18.95-6.78-28.54-11.46l-1.96-19.26c7.18-6.97,13.64-12.6,21.85-19.09l22.95,13.56,3.94,12.46c-4.98,8.29-10.74,15.42-18.24,23.79ZM118.74,83.55l16.17-20.07c1.55,8.71,2.76,16.11,3.8,24.49-7.89-1.56-13.8-2.87-19.97-4.42ZM158.5,85.98c-4.42,3.23-11.14,3.01-15.63,1.93l-5.76-27.2c-.43-2.02,1.96-5.42,3.45-7.27,6.66,4.04,29.44,24.15,17.94,32.54Z"/>
      <path class="cls-1" d="M143.67,29.07s-.06.03-.06.03l.06-.03Z"/>
    </g>
  </g>
</svg>